# xmcd
#
# Track frame offsets: 
#        150
#        9525
#        20360
#        31305
#        41317
#        50775
#        61200
#        71897
#        81062
#        91415
#        102067
#        112800
#        127115
#        143302
#        155650
#        165595
#        178787
#        188210
#        199922
#        215245
#        223277
#        236775
#        248482
#        261237
#        270677
#        282945
#        297352
#
# Disc length: 4282 seconds
#
# Revision: 0
# Processed by: cddbd v1.4PL0 Copyright (c) Steve Scherf et al.
# Submitted via: ExactAudioCopy v0.90b3
#
DISCID=9310b81b
DTITLE=Everybody's Grandpa - Everybody's Grandpa - Disc 03
DYEAR=1900
DGENRE=Country
TTITLE0=Are You From Dixie (1964)
TTITLE1=Root Hog Root (1964)
TTITLE2=Falling Leaves (1964)
TTITLE3=Here Comes The Champion (1964)
TTITLE4=Banjo Am The Instrument (1967)
TTITLE5=Springtime Comes But Once A Year (1967)
TTITLE6=Eight More Miles To Louisville (Master) (1965)
TTITLE7=The Little Old Lady (1965)
TTITLE8=Springtime Comes But Once A Year (Alt) (1997)
TTITLE9=Eight More Miles To Louisville (Without Tambourine) (1997)
TTITLE10=Eight More Miles To Louisville (Alt Without Tambourine) (1997
TTITLE10=)
TTITLE11=On The Jericho Raod (1966)
TTITLE12=I'll Meet You In The Morning (1966)
TTITLE13=Gone Home (1966)
TTITLE14=Keep On The Firing Line (1966)
TTITLE15=Just Over In The Gloryland (1966)
TTITLE16=Old Camp Meetin' Time (1966)
TTITLE17=Empty Mansion (1966)
TTITLE18=When I Get To The End Of The Way (1966)
TTITLE19=The Glory Land Way (1966)
TTITLE20=Turn Your Radio On (1966)
TTITLE21=No Tears In Heaven (1966)
TTITLE22=Lonesome Train (Ramona Jones) (1997)
TTITLE23=Sandy Land (Ramona Jones) (1964)
TTITLE24=Send Me A Red Roses (Ramona Jones) (1964)
TTITLE25=Christmas Roses (1969)
TTITLE26=Christmas Guest (1969)
EXTD=
EXTT0=
EXTT1=
EXTT2=
EXTT3=
EXTT4=
EXTT5=
EXTT6=
EXTT7=
EXTT8=
EXTT9=
EXTT10=
EXTT11=
EXTT12=
EXTT13=
EXTT14=
EXTT15=
EXTT16=
EXTT17=
EXTT18=
EXTT19=
EXTT20=
EXTT21=
EXTT22=
EXTT23=
EXTT24=
EXTT25=
EXTT26=
PLAYORDER=
